<?xml version="1.0" encoding="UTF-8" standalone="no"?>
<!-- Created with Inkscape (http://www.inkscape.org/) -->

<svg
   width="600"
   height="180"
   viewBox="0 0 600 180"
   version="1.1"
   id="svg5"
   sodipodi:docname="kabucalculator-logo-header.svg"
   inkscape:version="1.1.2 (b8e25be833, 2022-02-05)"
   xmlns:inkscape="http://www.inkscape.org/namespaces/inkscape"
   xmlns:sodipodi="http://sodipodi.sourceforge.net/DTD/sodipodi-0.dtd"
   xmlns="http://www.w3.org/2000/svg"
   xmlns:svg="http://www.w3.org/2000/svg">
  <sodipodi:namedview
     id="namedview7"
     pagecolor="#ffffff"
     bordercolor="#111111"
     borderopacity="1"
     inkscape:pageshadow="0"
     inkscape:pageopacity="0"
     inkscape:pagecheckerboard="1"
     inkscape:document-units="px"
     showgrid="false"
     inkscape:object-paths="false"
     inkscape:snap-nodes="true"
     inkscape:zoom="0.65312309"
     inkscape:cx="359.04411"
     inkscape:cy="113.30177"
     inkscape:window-width="1920"
     inkscape:window-height="1009"
     inkscape:window-x="-8"
     inkscape:window-y="-8"
     inkscape:window-maximized="1"
     inkscape:current-layer="text8240"
     width="600px" />
  <defs
     id="defs2" />
  <g
     inkscape:label="Layer 1"
     inkscape:groupmode="layer"
     id="layer1">
    <rect
       id="rect352"
       width="21.563755"
       height="11.036625"
       x="3.4218707"
       y="103.70096"
       rx="5.0870957"
       style="fill:#263238;fill-opacity:1;stroke-width:1.02035" />
    <rect
       style="fill:#ff9800;fill-opacity:1;stroke-width:0.74271"
       id="rect1358"
       width="71.56266"
       height="11.036625"
       x="103.38568"
       y="-22.393524"
       rx="5.0870957"
       transform="rotate(65.997864)" />
    <rect
       style="fill:#ff9800;fill-opacity:1;stroke-width:0.765522"
       id="rect1544"
       width="27.95974"
       height="11.036625"
       x="-53.083748"
       y="100.0162"
       rx="5.0870957"
       transform="rotate(-48.96575)" />
    <rect
       style="fill:#ff9800;fill-opacity:1;stroke-width:0.726238"
       id="rect1654"
       width="109.23815"
       height="11.036625"
       x="-103.02184"
       y="133.24796"
       rx="5.0870957"
       transform="rotate(-65.161532)" />
    <rect
       id="rect296"
       width="43.131691"
       height="11.036625"
       x="98.108803"
       y="-98.147331"
       rx="5.0870957"
       style="fill:#ff9800;fill-opacity:1;stroke-width:0.758788"
       transform="rotate(66.230975)" />
    <g
       aria-label="KabuCalculator"
       id="text8240"
       style="font-weight:bold;font-size:58.862px;line-height:1.25;font-family:Roboto;-inkscape-font-specification:'Roboto Bold';fill:#263236;stroke-width:0.78833">
      <path
         d="m 188.90793,70.902183 -4.48363,4.828523 V 87.68705 h -8.62236 V 45.839847 h 8.62236 v 18.969199 l 3.79384,-5.202159 10.66299,-13.76704 h 10.60551 l -14.85921,18.595563 15.29033,23.25164 h -10.26062 z"
         id="path838" />
      <path
         d="m 230.64017,87.68705 q -0.57482,-1.120907 -0.83349,-2.787898 -3.01783,3.362722 -7.84635,3.362722 -4.56986,0 -7.58768,-2.644191 -2.98909,-2.644192 -2.98909,-6.667961 0,-4.943488 3.65013,-7.58768 3.67888,-2.644191 10.60551,-2.672932 h 3.82258 v -1.781955 q 0,-2.155591 -1.12091,-3.448946 -1.09216,-1.293354 -3.47768,-1.293354 -2.09811,0 -3.30524,1.005942 -1.17839,1.005943 -1.17839,2.759156 h -8.30621 q 0,-2.701673 1.66699,-5.00097 1.66699,-2.299297 4.71356,-3.592652 3.04657,-1.322095 6.84041,-1.322095 5.74824,0 9.11096,2.902862 3.39146,2.874121 3.39146,8.105021 v 13.479628 q 0.0287,4.426147 1.23587,6.696702 v 0.488601 z m -6.86915,-5.776983 q 1.83944,0 3.39146,-0.804754 1.55203,-0.833495 2.2993,-2.213074 v -5.345865 h -3.10405 q -6.23684,0 -6.63922,4.311182 l -0.0287,0.4886 q 0,1.552026 1.09217,2.557968 1.09216,1.005943 2.98908,1.005943 z"
         id="path840" />
      <path
         d="m 272.19996,72.425467 q 0,7.472715 -3.19027,11.668932 -3.19028,4.167475 -8.90978,4.167475 -5.05845,0 -8.07628,-3.880063 L 251.65,87.68705 h -7.47272 v -44.1465 h 8.30621 v 15.836407 q 2.87412,-3.362721 7.55894,-3.362721 5.69076,0 8.90978,4.196216 3.24775,4.167476 3.24775,11.755156 z m -8.30621,-0.603565 q 0,-4.713559 -1.49454,-6.86915 -1.49454,-2.184332 -4.45489,-2.184332 -3.96629,0 -5.46083,3.247757 v 12.272497 q 1.52329,3.276498 5.51831,3.276498 4.02377,0 5.28839,-3.966287 0.60356,-1.89692 0.60356,-5.776983 z"
         id="path842" />
      <path
         d="m 295.9402,84.525517 q -3.07531,3.736357 -8.50739,3.736357 -5.00097,0 -7.64517,-2.874121 -2.61545,-2.874121 -2.67293,-8.421175 V 56.58906 h 8.30621 v 20.090106 q 0,4.857265 4.42615,4.857265 4.22496,0 5.80572,-2.931604 V 56.58906 h 8.33495 v 31.09799 h -7.81761 z"
         id="path844" />
      <path
         d="m 343.65061,73.747563 q -0.4886,6.754184 -5.00097,10.634248 -4.48363,3.880063 -11.84138,3.880063 -8.04754,0 -12.67487,-5.403348 -4.5986,-5.432088 -4.5986,-14.887947 v -2.557967 q 0,-6.035655 2.12685,-10.634248 2.12685,-4.598594 6.0644,-7.041597 3.96629,-2.471744 9.19719,-2.471744 7.24278,0 11.66893,3.880063 4.42614,3.880064 5.11593,10.892919 h -8.62236 q -0.31615,-4.052511 -2.27056,-5.863207 -1.92566,-1.839437 -5.89194,-1.839437 -4.31119,0 -6.46678,3.10405 -2.12685,3.07531 -2.18433,9.570824 v 3.161533 q 0,6.782926 2.04063,9.915717 2.06936,3.132792 6.49551,3.132792 3.99503,0 5.94943,-1.810696 1.98315,-1.839437 2.27056,-5.662018 z"
         id="path846" />
      <path
         d="m 366.78728,87.68705 q -0.57483,-1.120907 -0.8335,-2.787898 -3.01783,3.362722 -7.84635,3.362722 -4.56985,0 -7.58768,-2.644191 -2.98908,-2.644192 -2.98908,-6.667961 0,-4.943488 3.65013,-7.58768 3.67887,-2.644191 10.60551,-2.672932 h 3.82258 v -1.781955 q 0,-2.155591 -1.12091,-3.448946 -1.09217,-1.293354 -3.47769,-1.293354 -2.0981,0 -3.30524,1.005942 -1.17839,1.005943 -1.17839,2.759156 h -8.30621 q 0,-2.701673 1.667,-5.00097 1.66699,-2.299297 4.71355,-3.592652 3.04657,-1.322095 6.84041,-1.322095 5.74824,0 9.11097,2.902862 3.39146,2.874121 3.39146,8.105021 v 13.479628 q 0.0287,4.426147 1.23587,6.696702 v 0.488601 z m -6.86915,-5.776983 q 1.83944,0 3.39146,-0.804754 1.55203,-0.833495 2.2993,-2.213074 v -5.345865 h -3.10405 q -6.23685,0 -6.63922,4.311182 l -0.0287,0.4886 q 0,1.552026 1.09216,2.557968 1.09217,1.005943 2.98909,1.005943 z"
         id="path848" />
      <path
         d="m 389.09047,87.68705 h -8.33495 v -44.1465 h 8.33495 z"
         id="path850" />
      <path
         d="m 408.86442,81.565172 q 2.2993,0 3.73636,-1.264613 1.43706,-1.264614 1.49454,-3.362722 h 7.78887 q -0.0287,3.161533 -1.72447,5.805725 -1.69574,2.61545 -4.65608,4.081252 -2.9316,1.43706 -6.49551,1.43706 -6.66797,0 -10.51929,-4.224958 -3.85132,-4.253699 -3.85132,-11.726414 v -0.546083 q 0,-7.185303 3.82258,-11.467743 3.82258,-4.28244 10.49054,-4.28244 5.83447,0 9.3409,3.33398 3.53517,3.305239 3.59265,8.823552 h -7.78887 q -0.0575,-2.414262 -1.49454,-3.908805 -1.43706,-1.523284 -3.79384,-1.523284 -2.90286,0 -4.39741,2.12685 -1.4658,2.098108 -1.4658,6.840408 v 0.862236 q 0,4.799782 1.4658,6.897891 1.4658,2.098108 4.45489,2.098108 z"
         id="path852" />
      <path
         d="m 445.2508,84.525517 q -3.07531,3.736357 -8.5074,3.736357 -5.00097,0 -7.64516,-2.874121 -2.61545,-2.874121 -2.67294,-8.421175 V 56.58906 h 8.30621 v 20.090106 q 0,4.857265 4.42615,4.857265 4.22496,0 5.80573,-2.931604 V 56.58906 h 8.33495 v 31.09799 h -7.81761 z"
         id="path854" />
      <path
         d="m 468.32997,87.68705 h -8.33495 v -44.1465 h 8.33495 z"
         id="path856" />
      <path
         d="m 493.19115,87.68705 q -0.57483,-1.120907 -0.8335,-2.787898 -3.01783,3.362722 -7.84635,3.362722 -4.56985,0 -7.58768,-2.644191 -2.98908,-2.644192 -2.98908,-6.667961 0,-4.943488 3.65013,-7.58768 3.67887,-2.644191 10.60551,-2.672932 h 3.82258 v -1.781955 q 0,-2.155591 -1.12091,-3.448946 -1.09217,-1.293354 -3.47769,-1.293354 -2.09811,0 -3.30524,1.005942 -1.17839,1.005943 -1.17839,2.759156 h -8.30621 q 0,-2.701673 1.66699,-5.00097 1.66699,-2.299297 4.71356,-3.592652 3.04657,-1.322095 6.84041,-1.322095 5.74824,0 9.11097,2.902862 3.39146,2.874121 3.39146,8.105021 v 13.479628 q 0.0287,4.426147 1.23587,6.696702 V 87.68705 Z M 486.322,81.910067 q 1.83943,0 3.39146,-0.804754 1.55203,-0.833495 2.2993,-2.213074 v -5.345865 h -3.10405 q -6.23685,0 -6.63922,4.311182 l -0.0287,0.4886 q 0,1.552026 1.09216,2.557968 1.09217,1.005943 2.98909,1.005943 z"
         id="path858" />
      <path
         d="m 516.6727,48.943898 v 7.645162 h 5.31712 v 6.093137 H 516.6727 V 78.20245 q 0,1.724473 0.66105,2.471744 0.66104,0.747272 2.52922,0.747272 1.37958,0 2.443,-0.201189 v 6.294326 q -2.443,0.747271 -5.02971,0.747271 -8.73733,0 -8.90977,-8.823552 V 62.682197 h -4.54111 V 56.58906 h 4.54111 v -7.645162 z"
         id="path860" />
      <path
         d="m 524.46156,71.850643 q 0,-4.627335 1.78195,-8.248728 1.78196,-3.621392 5.11594,-5.604536 3.36272,-1.983143 7.78886,-1.983143 6.29433,0 10.26062,3.851322 3.99503,3.851322 4.45488,10.461801 l 0.0575,2.126849 q 0,7.156562 -3.99503,11.496484 -3.99503,4.311182 -10.72047,4.311182 -6.72545,0 -10.74922,-4.311182 -3.99502,-4.311181 -3.99502,-11.726413 z m 8.30621,0.603565 q 0,4.426147 1.66699,6.782926 1.66699,2.328038 4.77104,2.328038 3.01782,0 4.71356,-2.299297 1.69573,-2.328038 1.69573,-7.415232 0,-4.339923 -1.69573,-6.725444 -1.69574,-2.38552 -4.77105,-2.38552 -3.04656,0 -4.71355,2.38552 -1.66699,2.35678 -1.66699,7.329009 z"
         id="path862" />
      <path
         d="m 576.51192,64.377928 q -1.69574,-0.22993 -2.98909,-0.22993 -4.71356,0 -6.17936,3.190275 V 87.68705 h -8.30621 V 56.58906 h 7.84635 l 0.22993,3.707616 q 2.50048,-4.28244 6.92663,-4.28244 1.37958,0 2.58671,0.373635 z"
         id="path864" />
    </g>
    <rect
       style="fill:#263238;fill-opacity:1;stroke-width:0.745105"
       id="rect35694"
       width="439.55313"
       height="11.036625"
       x="156.91473"
       y="103.70096"
       rx="5.0870957" />
  </g>
</svg>
